<svg xmlns="http://www.w3.org/2000/svg" viewBox="0 0 32 32"><rect width="32" height="32" rx="6" fill="#FCC800"/><g fill="#0A0A0A" transform="translate(5.5,9) scale(1.909,2)"><rect x="0" y="0" width="5" height="1"/><rect x="0" y="3" width="5" height="1"/><rect x="0" y="6" width="5" height="1"/><rect x="0" y="1" width="1" height="2"/><rect x="4" y="1" width="1" height="2"/><rect x="0" y="4" width="1" height="2"/><rect x="4" y="4" width="1" height="2"/><rect x="6" y="0" width="5" height="1"/><rect x="6" y="3" width="5" height="1"/><rect x="6" y="6" width="5" height="1"/><rect x="6" y="1" width="1" height="2"/><rect x="10" y="1" width="1" height="2"/><rect x="6" y="4" width="1" height="2"/><rect x="10" y="4" width="1" height="2"/></g></svg>